# Blender v2.90.1 OBJ File: 'pistol.blend'
# www.blender.org
mtllib muzzle_flash.mtl
o Cube.001
v -0.144626 0.007251 0.007002
v 0.008745 0.160622 0.007002
v 0.008745 -0.146120 0.007002
v 0.162116 0.007251 0.007002
v 0.008745 0.007251 1.455240
v 0.004852 0.157368 0.002035
v 0.004852 0.548586 0.131906
v 0.106746 0.115162 0.002035
v 0.160937 0.169353 0.131906
v 0.148952 0.013268 0.002035
v 0.540171 0.013268 0.131906
v 0.106746 -0.088626 0.002035
v 0.160937 -0.142817 0.131906
v 0.004852 -0.130832 0.002035
v 0.004852 -0.522051 0.131906
v -0.097042 -0.088626 0.002035
v -0.151233 -0.142817 0.131906
v -0.139248 0.013268 0.002035
v -0.530466 0.013268 0.131906
v -0.097042 0.115162 0.002035
v -0.151233 0.169353 0.131906
vt 0.000000 0.000000
vt 0.000000 0.000000
vt 0.000000 0.000000
vt 0.000000 0.000000
vt 0.000000 0.000000
vt 1.000000 0.500000
vt 1.000000 1.000000
vt 0.875000 1.000000
vt 0.875000 0.500000
vt 0.750000 1.000000
vt 0.750000 0.500000
vt 0.625000 1.000000
vt 0.625000 0.500000
vt 0.500000 1.000000
vt 0.500000 0.500000
vt 0.375000 1.000000
vt 0.375000 0.500000
vt 0.250000 1.000000
vt 0.250000 0.500000
vt 0.419706 0.419706
vt 0.250000 0.490000
vt 0.080294 0.419706
vt 0.010000 0.250000
vt 0.080294 0.080294
vt 0.250000 0.010000
vt 0.419706 0.080294
vt 0.490000 0.250000
vt 0.125000 1.000000
vt 0.125000 0.500000
vt 0.000000 1.000000
vt 0.000000 0.500000
vt 0.750000 0.490000
vt 0.919706 0.419706
vt 0.990000 0.250000
vt 0.919706 0.080294
vt 0.750000 0.010000
vt 0.580294 0.080294
vt 0.510000 0.250000
vt 0.580294 0.419706
vn 0.7051 -0.7051 0.0747
vn -0.7051 0.7051 0.0747
vn -0.7051 -0.7051 0.0747
vn 0.7051 0.7051 0.0747
vn 0.5814 0.3559 -0.7316
vn 0.3559 0.5814 -0.7316
vn 0.3559 -0.5814 -0.7316
vn 0.5814 -0.3559 -0.7316
vn -0.5814 -0.3559 -0.7316
vn -0.3559 -0.5814 -0.7316
vn 0.0000 0.0000 1.0000
vn -0.3559 0.5814 -0.7316
vn -0.5814 0.3559 -0.7316
vn 0.0000 0.0000 -1.0000
usemtl None
s off
f 3/1/1 4/2/1 5/3/1
f 1/4/2 5/3/2 2/5/2
f 5/3/3 1/4/3 3/1/3
f 2/5/4 5/3/4 4/2/4
f 6/6/5 7/7/5 9/8/5 8/9/5
f 8/9/6 9/8/6 11/10/6 10/11/6
f 10/11/7 11/10/7 13/12/7 12/13/7
f 12/13/8 13/12/8 15/14/8 14/15/8
f 14/15/9 15/14/9 17/16/9 16/17/9
f 16/17/10 17/16/10 19/18/10 18/19/10
f 9/20/11 7/21/11 21/22/11 19/23/11 17/24/11 15/25/11 13/26/11 11/27/11
f 18/19/12 19/18/12 21/28/12 20/29/12
f 20/29/13 21/28/13 7/30/13 6/31/13
f 6/32/14 8/33/14 10/34/14 12/35/14 14/36/14 16/37/14 18/38/14 20/39/14
